{"title":"Karate Kid III, The","uid":5612193,"size":581743183,"categoryP":"video","categoryS":"movies","magnet":"?xt=urn:btih:b08b6b504c6f8e2b21604e4fe06274d1857f15fd&amp;dn=Karate+Kid+III%2C+The&amp;tr=udp%3A%2F%2Ftracker.openbittorrent.com%3A80&amp;tr=udp%3A%2F%2Fopen.demonii.com%3A1337&amp;tr=udp%3A%2F%2Ftracker.coppersurfer.tk%3A6969&amp;tr=udp%3A%2F%2Fexodus.desync.com%3A6969","seeders":0,"leechers":1,"uploader":"YoCkNeR-BeNzO","files":2,"time":1275925015,"description":"After Daniel and Miyagi defeats the Cobra Kais, and after Miyagi humiliates their master, Kreese. All of his students desert him and he hasn't had any new ones. Kreese decides to close the dojo, he then goes to to his friend, Terry, who is also the dojo's owner, to turn the keys, and announces that he is leaving town. Terry decides to send him on a vacation and before he leaves, he tells Kreese that he is going to get Daniel and Miyagi. Part of his plan is to recruit a deadly karate fighter, Mike Barnes to fight Daniel in the tournament, he then pretends to be a friend of Kreese, who wants to &quot;apologize&quot; for Kreese disgraceful behavior. When Daniel's invited to participate in the Karate tournament that he won last year, Miyagi believes that it's not a priority. So Terry offers to train Daniel but in reality, he is putting Daniel through a gruelling training regimen as part of his plan. And Daniel's constantly being hounded by Barnes. Eventually all of the training that Terry puts Daniel through and Barnes' hounding, causes a rift between Daniel and Miyagi.\n\n\nFormat : AVI\nFormat/Info : Audio Video Interleave\nFile size : 555 MiB\nDuration : 1h 47mn\nOverall bit rate : 719 Kbps\nWriting application : MEncoder SVN-r29352(20090610-gcc4.3.3)\nWriting library : MPlayer\n\nVideo\nFormat : avc1\nCodec ID : avc1\nDuration : 1h 47mn\nBit rate : 578 Kbps\nWidth : 480 pixels\nHeight : 360 pixels\nDisplay aspect ratio : 4:3\nFrame rate : 25.000 fps\nBits/(Pixel*Frame) : 0.134\nStream size : 447 MiB (80%)\n\nAudio\nID : 1\nFormat : MPEG Audio\nFormat version : Version 1\nFormat profile : Layer 3\nMode : Joint stereo\nFormat_Settings_ModeExtension : MS Stereo\nCodec ID : 55\nCodec ID/Hint : MP3\nDuration : 1h 47mn\nBit rate mode : Constant\nBit rate : 128 Kbps\nChannel(s) : 2 channels\nSampling rate : 44.1 KHz\nStream size : 98.8 MiB (18%)\nAlignment : Aligned on interleaves\nInterleave, duration : 26 ms (0.65 video frame)\nInterleave, preload duration : 522 ms\nWriting library : LAME3.98","torrent":{"xt":"urn:btih:b08b6b504c6f8e2b21604e4fe06274d1857f15fd","amp;dn":"Karate+Kid+III%2C+The","amp;tr":["udp%3A%2F%2Ftracker.openbittorrent.com%3A80","udp%3A%2F%2Fopen.demonii.com%3A1337","udp%3A%2F%2Ftracker.coppersurfer.tk%3A6969","udp%3A%2F%2Fexodus.desync.com%3A6969"],"infoHash":"b08b6b504c6f8e2b21604e4fe06274d1857f15fd","infoHashBuffer":{"type":"Buffer","data":[176,139,107,80,76,111,142,43,33,96,78,79,224,98,116,209,133,127,21,253]},"announce":[],"urlList":[]}}